<svg width="802" height="150" viewBox="0 0 802 150" fill="none" xmlns="http://www.w3.org/2000/svg">
<path d="M0.21875 0.1875H33.3438V11.3594H14.5938V137.922H33.3438V149.094H0.21875V0.1875Z" fill="#6A96FF"/>
<path d="M80.375 11.3594H96.2344V114.719H152.562V128H80.375V11.3594Z" fill="#6A96FF"/>
<path d="M200.062 130.266C191 130.266 183.839 127.74 178.578 122.688C176.078 120.292 174.125 117.479 172.719 114.25C171.312 110.969 170.609 107.036 170.609 102.453C170.609 92.8177 173.891 85.4479 180.453 80.3438C186.911 75.2917 196.495 72.7656 209.203 72.7656H228.5V70.5C228.5 67.1667 228.057 64.1979 227.172 61.5938C226.286 58.9896 224.958 56.8802 223.188 55.2656C221.469 53.7031 219.203 52.5312 216.391 51.75C213.578 50.9688 210.297 50.5781 206.547 50.5781C201.599 50.5781 196.625 51.2812 191.625 52.6875C186.573 54.0938 181.703 56.151 177.016 58.8594V44.4844C179.203 43.651 181.625 42.8177 184.281 41.9844C186.938 41.151 189.62 40.4479 192.328 39.875C197.068 38.8854 201.833 38.3906 206.625 38.3906C210.323 38.3906 213.682 38.6771 216.703 39.25C219.724 39.7708 222.536 40.5781 225.141 41.6719C227.536 42.7135 229.802 44.0417 231.938 45.6562C234.125 47.2188 235.974 49.0417 237.484 51.125C238.578 52.6354 239.464 54.224 240.141 55.8906C240.818 57.5573 241.339 59.1979 241.703 60.8125C242.536 64.6146 242.953 70.3698 242.953 78.0781V95.9688C243.057 98.9896 243.135 101.646 243.188 103.938C243.24 106.229 243.396 108.365 243.656 110.344C243.917 112.531 244.203 114.589 244.516 116.516C244.88 118.443 245.193 119.901 245.453 120.891C245.818 122.505 246.234 124.042 246.703 125.5C247.172 126.906 247.458 127.74 247.562 128H233.109C232.849 127.375 232.51 126.464 232.094 125.266C231.729 124.016 231.365 122.661 231 121.203C230.74 120.057 230.479 118.911 230.219 117.766C230.01 116.568 229.854 115.552 229.75 114.719C228.24 117.323 226.286 119.641 223.891 121.672C221.547 123.703 219.229 125.318 216.938 126.516C214.438 127.818 211.781 128.755 208.969 129.328C206.208 129.953 203.24 130.266 200.062 130.266ZM203.031 118.234C210.896 118.234 217.094 115.474 221.625 109.953C226.208 104.328 228.5 96.75 228.5 87.2188V84.0156H210.297C201.964 84.0156 195.661 85.474 191.391 88.3906C189.151 89.901 187.51 91.776 186.469 94.0156C185.479 96.2031 184.984 98.7552 184.984 101.672C184.984 104.38 185.401 106.75 186.234 108.781C187.068 110.76 188.24 112.453 189.75 113.859C191.26 115.214 193.083 116.281 195.219 117.062C197.406 117.844 200.01 118.234 203.031 118.234Z" fill="#6A96FF"/>
<path d="M319.438 128.312C308.708 128.312 301.104 126.151 296.625 121.828C292.198 117.557 289.984 110.109 289.984 99.4844V51.6719H266.625V40.5H289.984V17.6094L304.359 11.3594V40.5H337.016V51.6719H304.359V99.4844C304.359 105.891 305.583 110.396 308.031 113C310.427 115.552 314.698 116.828 320.844 116.828H337.016V128.312H319.438Z" fill="#6A96FF"/>
<path d="M405.688 130.266C398.969 130.266 392.927 129.25 387.562 127.219C382.25 125.135 377.719 122.089 373.969 118.078C370.219 114.068 367.354 109.25 365.375 103.625C363.448 97.9479 362.484 91.5417 362.484 84.4062C362.484 77.0625 363.474 70.6302 365.453 65.1094C367.432 59.5365 370.167 54.7969 373.656 50.8906C377.458 46.6719 381.911 43.5469 387.016 41.5156C392.12 39.4323 397.615 38.3906 403.5 38.3906C409.333 38.3906 414.438 39.3542 418.812 41.2812C423.24 43.2083 427.016 45.9948 430.141 49.6406C433.266 53.2865 435.635 57.7135 437.25 62.9219C438.917 68.0781 439.75 73.9896 439.75 80.6562V87.6875H377.484V88.1562C377.484 97.6875 379.984 105.057 384.984 110.266C387.38 112.766 390.271 114.693 393.656 116.047C397.094 117.401 401.182 118.078 405.922 118.078C410.661 118.078 415.479 117.349 420.375 115.891C425.427 114.38 430.766 112.167 436.391 109.25V123.547C433.63 124.693 430.948 125.682 428.344 126.516C425.74 127.349 423.161 128.052 420.609 128.625C418.109 129.198 415.609 129.615 413.109 129.875C410.609 130.135 408.135 130.266 405.688 130.266ZM425.375 76.4375C425.271 71.9583 424.672 68.1302 423.578 64.9531C422.536 61.724 421.156 59.1198 419.438 57.1406C417.562 54.9531 415.245 53.3125 412.484 52.2188C409.724 51.125 406.625 50.5781 403.188 50.5781C396.156 50.5781 390.427 52.8698 386 57.4531C381.521 62.0885 378.865 68.4427 378.031 76.5156L425.375 76.4375Z" fill="#6A96FF"/>
<path d="M459.906 11.3594H483.578C501.391 11.3594 514.516 16.099 522.953 25.5781C531.391 35.0573 535.609 49.7969 535.609 69.7969C535.609 89.6927 531.391 104.354 522.953 113.781C514.516 123.26 501.391 128 483.578 128H459.906V11.3594ZM483.266 115.031C496.547 115.031 505.818 111.75 511.078 105.188C513.734 101.906 515.714 97.349 517.016 91.5156C518.318 85.6823 518.969 78.3906 518.969 69.6406C518.969 61.0469 518.318 53.8073 517.016 47.9219C515.766 41.9844 513.812 37.375 511.156 34.0938C508.5 30.7604 504.802 28.3125 500.062 26.75C495.375 25.1354 489.776 24.3281 483.266 24.3281H475.766V115.031H483.266Z" fill="#6A96FF"/>
<path d="M598.5 130.266C591.781 130.266 585.74 129.25 580.375 127.219C575.062 125.135 570.531 122.089 566.781 118.078C563.031 114.068 560.167 109.25 558.188 103.625C556.26 97.9479 555.297 91.5417 555.297 84.4062C555.297 77.0625 556.286 70.6302 558.266 65.1094C560.245 59.5365 562.979 54.7969 566.469 50.8906C570.271 46.6719 574.724 43.5469 579.828 41.5156C584.932 39.4323 590.427 38.3906 596.312 38.3906C602.146 38.3906 607.25 39.3542 611.625 41.2812C616.052 43.2083 619.828 45.9948 622.953 49.6406C626.078 53.2865 628.448 57.7135 630.062 62.9219C631.729 68.0781 632.562 73.9896 632.562 80.6562V87.6875H570.297V88.1562C570.297 97.6875 572.797 105.057 577.797 110.266C580.193 112.766 583.083 114.693 586.469 116.047C589.906 117.401 593.995 118.078 598.734 118.078C603.474 118.078 608.292 117.349 613.188 115.891C618.24 114.38 623.578 112.167 629.203 109.25V123.547C626.443 124.693 623.76 125.682 621.156 126.516C618.552 127.349 615.974 128.052 613.422 128.625C610.922 129.198 608.422 129.615 605.922 129.875C603.422 130.135 600.948 130.266 598.5 130.266ZM618.188 76.4375C618.083 71.9583 617.484 68.1302 616.391 64.9531C615.349 61.724 613.969 59.1198 612.25 57.1406C610.375 54.9531 608.057 53.3125 605.297 52.2188C602.536 51.125 599.438 50.5781 596 50.5781C588.969 50.5781 583.24 52.8698 578.812 57.4531C574.333 62.0885 571.677 68.4427 570.844 76.5156L618.188 76.4375Z" fill="#6A96FF"/>
<path d="M649.828 40.5H664.75L690.141 113.938L715.609 40.5H730.531L699.438 128H680.922L649.828 40.5Z" fill="#6A96FF"/>
<path d="M768.578 137.922H787.328V11.4375H768.578V0.265625H801.703V149.094H768.578V137.922Z" fill="#6A96FF"/>
</svg>
